<svg width="15" height="13" viewBox="0 0 15 13" fill="none" xmlns="http://www.w3.org/2000/svg">
<path d="M0.72644 4.33327V12.2778C0.72644 12.4693 0.802938 12.653 0.939275 12.7884C1.07549 12.924 1.26024 13 1.45288 13H13.0768C13.2694 13 13.4542 12.924 13.5904 12.7884C13.7267 12.653 13.8032 12.4693 13.8032 12.2778V4.33327H0.72644ZM8.71783 7.22212H5.81183C5.55229 7.22212 5.31245 7.08453 5.18268 6.86109C5.05291 6.63766 5.05291 6.36223 5.18268 6.13879C5.31245 5.91534 5.55229 5.77776 5.81183 5.77776H8.71783C8.97737 5.77776 9.21721 5.91535 9.34698 6.13879C9.47675 6.36222 9.47675 6.63765 9.34698 6.86109C9.21721 7.08454 8.97737 7.22212 8.71783 7.22212ZM13.8031 0H0.72644C0.533792 0 0.348929 0.07605 0.212714 0.211587C0.0764985 0.347004 0 0.530676 0 0.722178V2.88885H14.5294V0.722178C14.5294 0.53066 14.4529 0.347004 14.3167 0.211587C14.1805 0.07605 13.9958 0 13.8031 0Z" fill="#4F4F4F"/>
</svg>
