<svg width="14" height="15" viewBox="0 0 14 15" fill="none" xmlns="http://www.w3.org/2000/svg">
<path d="M0.600443 0C0.275042 0 0.0116214 0.2829 0.0116214 0.632365C0.0116214 0.798777 0.0736026 0.965189 0.18207 1.08168L3.11068 4.22686C1.93304 4.90915 0.894853 5.90762 0.104593 7.15571C-0.0348644 7.37204 -0.0348644 7.6383 0.104593 7.85464C1.68511 10.3675 4.25733 11.8818 6.9845 11.8818C7.92972 11.8818 8.85943 11.6988 9.74267 11.3493L12.9657 14.8107C13.1826 15.0603 13.5545 15.0603 13.7869 14.8273C14.0194 14.5943 14.0194 14.1949 13.8024 13.9453L13.7869 13.9287L1.00332 0.183053C0.894853 0.0665651 0.755396 0 0.600443 0ZM7 3.12854C6.36469 3.12854 5.74488 3.21175 5.14056 3.37816L6.13226 4.4432C6.41118 4.40991 6.70559 4.37663 7 4.37663C9.20033 4.37663 11.2457 5.55816 12.6403 7.50517C12.098 8.27067 11.4626 8.90303 10.7499 9.40227L11.6021 10.3175C12.4853 9.68517 13.2601 8.85311 13.8954 7.85464C14.0349 7.6383 14.0349 7.37204 13.8954 7.15571C12.2994 4.64289 9.74267 3.12854 7 3.12854ZM7 5.009C6.89153 5.009 6.79856 5.02564 6.69009 5.04228L9.2933 7.838C9.3088 7.72151 9.32429 7.62166 9.32429 7.50517C9.33979 6.1406 8.28611 5.009 7 5.009ZM3.99391 5.15877L5.0166 6.25709C4.81516 6.62319 4.67571 7.05586 4.67571 7.50517C4.67571 8.88639 5.72939 10.0014 7 10.0014C7.43387 10.0014 7.82125 9.86822 8.16215 9.63524L8.81295 10.3342C8.22413 10.5172 7.61981 10.6171 7 10.6171C4.79967 10.6171 2.73879 9.45219 1.35971 7.48853C2.08799 6.49006 2.98672 5.69128 3.99391 5.15877ZM5.88434 7.18899L7.30991 8.71998C7.21693 8.75326 7.10847 8.75326 7 8.75326C6.3492 8.75326 5.83785 8.2041 5.83785 7.50517C5.83785 7.38869 5.85335 7.28884 5.88434 7.18899Z" fill="#4F4F4F"/>
</svg>
