<svg width="14" height="14" viewBox="0 0 14 14" fill="none" xmlns="http://www.w3.org/2000/svg">
<path d="M12.4703 0.50991C12.7519 0.228294 13.2085 0.228294 13.4901 0.50991C13.7717 0.791525 13.7717 1.24811 13.4901 1.52973L7.00004 8.01982C6.71843 8.30144 6.26184 8.30144 5.98022 8.01982C5.69861 7.7382 5.69861 7.28162 5.98022 7L12.4703 0.50991Z" fill="#838383"/>
<path d="M12.259 1.74107H9.37456C8.9763 1.74107 8.65344 1.41821 8.65344 1.01995C8.65344 0.621685 8.9763 0.298828 9.37456 0.298828H12.9802C13.3784 0.298828 13.7013 0.621685 13.7013 1.01995V4.62556C13.7013 5.02382 13.3784 5.34668 12.9802 5.34668C12.5819 5.34668 12.259 5.02382 12.259 4.62556V1.74107Z" fill="#838383"/>
<path d="M10.8168 7.8705C10.8168 7.47223 11.1397 7.14938 11.5379 7.14938C11.9362 7.14938 12.2591 7.47223 12.2591 7.8705V11.9268C12.2591 13.0718 11.3308 14 10.1858 14H2.07322C0.928214 14 0 13.0718 0 11.9268L1.71929e-06 3.81419C1.71929e-06 2.66918 0.928214 1.74097 2.07322 1.74097C4.98074 1.74097 4.98074 1.74097 6.46756 1.74097C6.86582 1.74097 7.18868 2.06383 7.18868 2.46209C7.18868 2.86035 6.86582 3.18321 6.46756 3.18321C4.98074 3.18321 4.98074 3.18321 2.07322 3.18321C1.72474 3.18321 1.44224 3.46571 1.44224 3.81419L1.44224 11.9268C1.44224 12.2753 1.72474 12.5578 2.07322 12.5578H10.1858C10.5343 12.5578 10.8168 12.2753 10.8168 11.9268V7.8705Z" fill="#838383"/>
</svg>
