<svg width="15" height="15" viewBox="0 0 15 15" fill="none" xmlns="http://www.w3.org/2000/svg">
<path d="M13.11 1.90024H9.22502V1.0797C9.22502 0.849372 9.03002 0.662231 8.79002 0.662231H6.21002C5.97002 0.662231 5.77502 0.849372 5.77502 1.0797V1.91463H1.89002C1.65002 1.91463 1.45502 2.10177 1.45502 2.3321V3.16703C1.45502 3.39736 1.65002 3.5845 1.89002 3.5845H13.11C13.35 3.5845 13.545 3.39736 13.545 3.16703V2.3177C13.545 2.08738 13.35 1.90024 13.11 1.90024Z" fill="#4F4F4F"/>
<path d="M12.435 4.39062H2.56501C2.43001 4.39062 2.32501 4.50579 2.35501 4.62095L3.48001 13.2438C3.55501 13.8628 4.11001 14.3378 4.77001 14.3378H10.26C10.92 14.3378 11.46 13.8772 11.55 13.2438L12.675 4.62095C12.66 4.50579 12.57 4.39062 12.435 4.39062ZM5.46001 12.5096C5.44501 12.5096 5.44501 12.5096 5.43001 12.5096C5.23501 12.5096 5.05501 12.3657 5.04001 12.1641L4.56001 6.62191C4.54501 6.42038 4.69501 6.23324 4.92001 6.21884C5.13001 6.20444 5.32501 6.3484 5.34001 6.56433L5.82001 12.1066C5.83501 12.3081 5.68501 12.4952 5.46001 12.5096ZM7.89001 12.1353C7.89001 12.3369 7.71001 12.5096 7.50001 12.5096C7.29001 12.5096 7.11001 12.3369 7.11001 12.1353V6.59312C7.11001 6.39158 7.29001 6.21884 7.50001 6.21884C7.71001 6.21884 7.89001 6.39158 7.89001 6.59312V12.1353ZM9.94501 12.1641C9.93001 12.3657 9.76501 12.5096 9.55501 12.5096C9.54001 12.5096 9.54001 12.5096 9.52501 12.5096C9.31501 12.4952 9.15001 12.3081 9.16501 12.1066L9.64501 6.56433C9.66001 6.36279 9.85501 6.20444 10.065 6.21884C10.275 6.23324 10.44 6.42038 10.425 6.62191L9.94501 12.1641Z" fill="#4F4F4F"/>
</svg>
