<svg width="15" height="16" viewBox="0 0 15 16" fill="none" xmlns="http://www.w3.org/2000/svg">
<path d="M0.00250539 7.5041C0.00250539 6.51056 0.00250539 5.51715 0.00250539 4.52387C0.00487347 2.24973 1.49913 0.458668 3.73578 0.0639877C3.98229 0.0230535 4.23185 0.0033786 4.48173 0.00518028C6.4946 0.000838798 8.50746 -0.00389736 10.5203 0.00518028C12.6851 0.0142579 14.4474 1.43353 14.8973 3.53007C14.9617 3.84568 14.9937 4.16703 14.9928 4.48914C15.001 6.49569 15.0022 8.50224 14.9964 10.5088C14.9924 12.7672 13.465 14.5708 11.2347 14.947C10.9942 14.9845 10.7511 15.0022 10.5077 14.9999C8.50154 15.0038 6.49578 15.0078 4.48962 14.9999C2.32322 14.992 0.558609 13.579 0.105517 11.4837C0.0399538 11.1611 0.00689849 10.8328 0.0068469 10.5037C-0.00538818 9.50513 0.00250539 8.50501 0.00250539 7.5041ZM0.715692 7.50015C0.715692 8.52 0.710166 9.54025 0.715692 10.5597C0.728716 12.6551 2.36309 14.2811 4.45844 14.2847C6.48446 14.2879 8.51049 14.2879 10.5365 14.2847C12.6244 14.2815 14.2647 12.6665 14.2785 10.5802C14.2919 8.5279 14.2919 6.47556 14.2785 4.42323C14.2662 2.33379 12.6259 0.72034 10.5405 0.717577C8.51444 0.716262 6.48841 0.71692 4.46239 0.719551C4.24532 0.717834 4.02854 0.735799 3.81472 0.773227C1.95538 1.11699 0.721612 2.60494 0.717665 4.50058C0.714508 5.5007 0.71385 6.50082 0.715692 7.50094V7.50015Z" fill="#3490DC"/>
<path d="M9.63738 8.87005C9.63738 9.24539 9.63738 9.58047 9.63738 9.91634C9.63738 10.2289 9.51898 10.3533 9.21389 10.3536C7.70068 10.3536 6.18748 10.3615 4.67507 10.3517C3.6489 10.345 2.89348 9.62507 2.86941 8.59969C2.84138 7.41565 2.85915 6.23161 2.8627 5.04757C2.8627 4.77525 2.99452 4.65092 3.26843 4.65092C4.80097 4.64895 6.33391 4.64303 7.86684 4.65408C8.61042 4.65921 9.12982 5.03968 9.4574 5.69564C9.47793 5.73511 9.49687 5.77892 9.51542 5.82036C9.51819 5.82628 9.5245 5.83022 9.54187 5.84799C9.74315 5.72287 9.94839 5.59657 10.1528 5.46909C10.5933 5.19282 11.0353 4.92128 11.4726 4.64027C11.698 4.4966 11.9249 4.46779 12.1614 4.59764C12.3978 4.72749 12.4988 4.93391 12.4984 5.20071C12.4984 6.61524 12.502 8.03017 12.4957 9.4447C12.4933 10.0205 11.9636 10.3051 11.4734 10.0028C10.9256 9.66414 10.381 9.31998 9.83432 8.97937C9.77986 8.94622 9.72302 8.9178 9.63738 8.87005ZM3.57549 5.36213V5.58868C3.57549 6.54223 3.57549 7.49564 3.57549 8.44892C3.57549 9.22329 3.99424 9.64007 4.77137 9.64086C6.08697 9.64086 7.40165 9.64086 8.71541 9.64086C8.77895 9.64086 8.84289 9.63494 8.9238 9.6306V9.40563C8.9238 8.4584 8.9238 7.51117 8.9238 6.56393C8.9238 5.77457 8.50978 5.36213 7.72002 5.36174C6.41153 5.36174 5.10343 5.36174 3.79572 5.36174L3.57549 5.36213ZM11.7718 5.32267C11.7434 5.32871 11.7157 5.33744 11.6889 5.34872C11.0373 5.75524 10.3841 6.16018 9.73684 6.57222C9.7087 6.59547 9.68571 6.62432 9.66933 6.65693C9.65296 6.68955 9.64355 6.72522 9.64172 6.76167C9.63264 7.12951 9.62949 7.49814 9.64172 7.86677C9.64694 7.91161 9.66138 7.95489 9.68413 7.99387C9.70689 8.03286 9.73746 8.06672 9.77394 8.09332C10.3813 8.48405 10.9955 8.86413 11.6084 9.24618C11.6542 9.27459 11.7039 9.2967 11.7702 9.33143L11.7718 5.32267Z" fill="#3490DC"/>
</svg>
